<svg width="82" height="76" viewBox="0 0 82 76" fill="none" xmlns="http://www.w3.org/2000/svg">
<circle cx="23" cy="29.5" r="22.5" fill="#7553FF"/>
<path d="M44.8095 56.6237L59.7826 66.11C61.6965 67.3226 64.0728 65.5192 63.5048 63.285L59.1788 46.2674C59.057 45.7935 59.0714 45.2947 59.2204 44.8286C59.3694 44.3624 59.647 43.9478 60.0212 43.6324L73.4481 32.457C75.2123 30.9886 74.3017 28.0607 72.035 27.9136L54.5004 26.7756C54.0281 26.7418 53.5752 26.5746 53.1942 26.2934C52.8133 26.0122 52.5201 25.6285 52.3487 25.1871L45.8091 8.71856C45.6313 8.25004 45.3152 7.84669 44.9028 7.56206C44.4904 7.27744 44.0011 7.125 43.5 7.125C42.9989 7.125 42.5097 7.27744 42.0972 7.56206C41.6848 7.84669 41.3687 8.25004 41.191 8.71856L34.6513 25.1871C34.48 25.6285 34.1867 26.0122 33.8058 26.2934C33.4249 26.5746 32.9719 26.7418 32.4996 26.7756L14.965 27.9136C12.6983 28.0607 11.7877 30.9886 13.552 32.457L26.9788 43.6324C27.353 43.9478 27.6306 44.3624 27.7796 44.8286C27.9286 45.2947 27.943 45.7935 27.8212 46.2674L23.8093 62.0494C23.1278 64.7303 25.9793 66.8945 28.276 65.4394L42.1905 56.6237C42.5818 56.3746 43.0361 56.2423 43.5 56.2423C43.9639 56.2423 44.4182 56.3746 44.8095 56.6237V56.6237Z" stroke="black" stroke-width="2" stroke-linecap="round" stroke-linejoin="round"/>
</svg>
